<?xml version="1.0" encoding="UTF-8"?>
<!DOCTYPE svg PUBLIC "-//W3C//DTD SVG 1.1//EN" "http://www.w3.org/Graphics/SVG/1.1/DTD/svg11.dtd">
<!-- Creator: CorelDRAW -->
<svg xmlns="http://www.w3.org/2000/svg" xml:space="preserve" width="11.6929in" height="8.26772in" style="shape-rendering:geometricPrecision; text-rendering:geometricPrecision; image-rendering:optimizeQuality; fill-rule:evenodd; clip-rule:evenodd"
viewBox="0 0 11.6929 8.26772"
 xmlns:xlink="http://www.w3.org/1999/xlink">
 <defs>
  <style type="text/css">
   <![CDATA[
    .fil0 {fill:#002071;fill-rule:nonzero}
    .fil5 {fill:url(#id0)}
    .fil2 {fill:url(#id1)}
    .fil1 {fill:url(#id2)}
    .fil6 {fill:url(#id3)}
    .fil7 {fill:url(#id4)}
    .fil4 {fill:url(#id5)}
    .fil3 {fill:url(#id6)}
    .fil8 {fill:url(#id7)}
   ]]>
  </style>
  <linearGradient id="id0" gradientUnits="userSpaceOnUse" x1="4.40848" y1="3.43191" x2="5.09778" y2="3.43191">
   <stop offset="0" style="stop-color:#00AFEF"/>
   <stop offset="1" style="stop-color:#3858A5"/>
  </linearGradient>
  <linearGradient id="id1" gradientUnits="userSpaceOnUse" xlink:href="#id0" x1="4.44046" y1="2.59093" x2="5.12131" y2="2.59093">
  </linearGradient>
  <linearGradient id="id2" gradientUnits="userSpaceOnUse" xlink:href="#id0" x1="5.31193" y1="3.89077" x2="6.01243" y2="3.89077">
  </linearGradient>
  <linearGradient id="id3" gradientUnits="userSpaceOnUse" xlink:href="#id0" x1="5.31371" y1="3.01317" x2="6.01815" y2="3.01317">
  </linearGradient>
  <linearGradient id="id4" gradientUnits="userSpaceOnUse" xlink:href="#id0" x1="5.34981" y1="2.15324" x2="6.01495" y2="2.15324">
  </linearGradient>
  <linearGradient id="id5" gradientUnits="userSpaceOnUse" xlink:href="#id0" x1="6.20735" y1="2.5735" x2="6.91178" y2="2.5735">
  </linearGradient>
  <linearGradient id="id6" gradientUnits="userSpaceOnUse" xlink:href="#id0" x1="6.25587" y1="3.44822" x2="6.9328" y2="3.44822">
  </linearGradient>
  <radialGradient id="id7" gradientUnits="userSpaceOnUse" cx="5.64117" cy="4.78956" r="0.0256063" fx="5.64117" fy="4.78956">
   <stop offset="0" style="stop-color:#3957A4"/>
   <stop offset="0.509804" style="stop-color:#1C83CA"/>
   <stop offset="1" style="stop-color:#00AFEF"/>
  </radialGradient>
 </defs>
 <g id="Layer_x0020_1">
  <metadata id="CorelCorpID_0Corel-Layer"/>
  <g id="_196048568">
   <path id="_378880664" class="fil0" d="M3.65615 5.35134c-0.0336772,0 -0.066378,-0.0045 -0.0981142,-0.0133386 -0.0317402,-0.00900787 -0.0621181,-0.0221969 -0.0911496,-0.0397087l0.0278661 -0.0640709c0.0267047,0.0170197 0.0534213,0.0300315 0.0799331,0.0387087 0.0267047,0.00884252 0.0530197,0.0133504 0.0791378,0.0133504 0.0203189,0 0.0383189,-0.00300394 0.0539921,-0.00885039 0.0156772,-0.00600394 0.0290236,-0.0146732 0.0400551,-0.026189 0.0110433,-0.0115118 0.0193661,-0.0251929 0.0251575,-0.0412126 0.00561417,-0.0158465 0.00851969,-0.0338622 0.00851969,-0.0538858 0,-0.0185197 -0.00232677,-0.0353701 -0.00716535,-0.0505551 -0.00464173,-0.015185 -0.0119843,-0.0290315 -0.0218583,-0.0415433 -0.00987402,-0.0120118 -0.024,-0.0245236 -0.0423819,-0.0375315 -0.0183858,-0.0130197 -0.0406339,-0.0265315 -0.0667717,-0.0405472 -0.0272874,-0.0145157 -0.0505,-0.0290315 -0.0698543,-0.043878 -0.0191575,-0.014685 -0.0346378,-0.0297008 -0.046248,-0.0452165 -0.0121929,-0.0155118 -0.0212913,-0.0320276 -0.0270906,-0.0497126 -0.00600787,-0.0175197 -0.00890945,-0.036378 -0.00890945,-0.0563898 0,-0.0490591 0.0174213,-0.0880984 0.052252,-0.117122 0.0174213,-0.0145157 0.0377323,-0.0253583 0.0611575,-0.032374 0.0232126,-0.00717323 0.0497244,-0.0106732 0.0793386,-0.0106732 0.0290236,0 0.058437,0.004 0.0880512,0.0118425 0.0296024,0.00801181 0.0594094,0.0196929 0.0895906,0.0352087l-0.0325079 0.059063c-0.0476024,-0.0280354 -0.0940394,-0.0420433 -0.139327,-0.0420433 -0.0174094,0 -0.0328976,0.00199606 -0.0462559,0.00616535 -0.0135472,0.00401181 -0.0251575,0.0103465 -0.0350197,0.0188543 -0.0092874,0.00801181 -0.0164528,0.0180197 -0.0214882,0.0297008 -0.0050315,0.0118465 -0.00753543,0.0253543 -0.00753543,0.0403701 0,0.0145157 0.00232283,0.0278661 0.00676378,0.039878 0.00425591,0.0121811 0.0106457,0.0231929 0.0187756,0.0332008 0.0174094,0.0200236 0.0499291,0.0430433 0.0975315,0.0690709 0.0290315,0.0160118 0.054189,0.0321969 0.0756654,0.0487165 0.0212795,0.0165118 0.0387008,0.0333661 0.0520472,0.0503858 0.013937,0.0170197 0.0242047,0.0350394 0.0307717,0.0540551 0.00658661,0.0190236 0.00987402,0.0390394 0.00987402,0.0600591 0,0.0325354 -0.00464173,0.0613976 -0.014126,0.0864291 -0.00928346,0.0251929 -0.0236142,0.0467126 -0.0427638,0.0647323 -0.0191575,0.0185157 -0.041811,0.0323661 -0.068126,0.041374 -0.0261181,0.00917717 -0.0561142,0.0136772 -0.0897874,0.0136772zm0.579386 -0.4885l0.0859291 0 -0.15328 0.4805c-0.0104449,0.0335315 -0.0210866,0.0628937 -0.032126,0.0880866 -0.0110236,0.025189 -0.022437,0.0465512 -0.0340512,0.0640709 -0.012189,0.0175079 -0.0276772,0.0325236 -0.046248,0.0452047 -0.0187677,0.0128504 -0.0408386,0.0233661 -0.066378,0.0318661l-0.0348346 -0.0610591c0.0191614,-0.00751181 0.0357953,-0.0165197 0.0499291,-0.0270276 0.014126,-0.0105157 0.0261299,-0.0225276 0.036,-0.0360354 0.00927953,-0.0135197 0.0174134,-0.0285354 0.0245709,-0.0448858 0.0069685,-0.0161811 0.0131535,-0.0336929 0.0183819,-0.0522205l-0.164882 -0.4885 0.0870866 0 0.0905748 0.286299c0.00464173,0.0145157 0.00909843,0.0310276 0.0131535,0.0493858 0.00425984,0.0185157 0.00832283,0.0387008 0.0123858,0.0607283l0.00581102 0c0.00231496,-0.0135197 0.00579921,-0.0290315 0.010248,-0.0468819 0.00464173,-0.017689 0.0100669,-0.0377126 0.0164488,-0.0602283l0.0812795 -0.289303zm0.275173 0.478492l-0.159071 -0.478492 0.0870866 0 0.0847638 0.280291c0.00581102,0.0175197 0.0110315,0.0352008 0.0156654,0.0530472 0.00465354,0.0178583 0.00871654,0.0355394 0.0122008,0.0530591l0.00464173 0c0.00290551,-0.0140157 0.00678346,-0.0300315 0.0114252,-0.0478819 0.00463386,-0.0180157 0.0100591,-0.0377008 0.0164409,-0.0592323l0.0847638 -0.279283 0.0859291 0 -0.16024 0.478492 -0.0836063 0zm0.802327 -0.374382c0.0429606,0.0135079 0.0752795,0.0355354 0.0967559,0.0657283 0.0214764,0.0303701 0.032126,0.0689094 0.032126,0.115453 0,0.0305394 -0.00522047,0.0577244 -0.0154803,0.0815906 -0.0104528,0.0238543 -0.0257441,0.0440394 -0.0460591,0.0605591 -0.0203189,0.0170197 -0.0447008,0.0297008 -0.0729488,0.0382047 -0.0284449,0.00850787 -0.0605669,0.0128465 -0.0965709,0.0128465l-0.168358 0 0 -0.700728 0.166043 0c0.0354134,0 0.0661811,0.00351181 0.0926929,0.010685 0.0265118,0.00700394 0.0489567,0.0178504 0.0675394,0.0323661 0.0179921,0.0145157 0.0315433,0.0316969 0.0408189,0.0517205 0.00909843,0.0200236 0.013752,0.0428819 0.013752,0.0684016 0,0.0185197 -0.00232677,0.0360354 -0.00716535,0.0525591 -0.00464173,0.0165118 -0.0120039,0.0320276 -0.0218661,0.0465433 -0.00987402,0.0150157 -0.0214843,0.0276969 -0.0350236,0.0382087 -0.0133543,0.0105079 -0.0288346,0.0188504 -0.0462559,0.0248543l0 0.00100787zm-0.120756 -0.263272l-0.0650236 0 0 0.235236 0.0650236 0c0.0220551,0 0.042,-0.00283465 0.0599921,-0.00833858 0.0178031,-0.00550787 0.0334764,-0.0136811 0.0468346,-0.0246929 0.0133504,-0.0110079 0.0232244,-0.0240276 0.0297992,-0.0390433 0.00638976,-0.0150118 0.00966929,-0.0320354 0.00966929,-0.0510512 0,-0.0195157 -0.00289764,-0.0365354 -0.00851181,-0.0508819 -0.00579921,-0.0145157 -0.014122,-0.0261969 -0.0251535,-0.0352087 -0.0116142,-0.00850787 -0.0267008,-0.0150157 -0.0454764,-0.0193465 -0.0185787,-0.00450787 -0.0410236,-0.00667323 -0.0671535,-0.00667323zm0.00232677 0.574591c0.0278661,0 0.0520591,-0.00283465 0.072374,-0.00833858 0.0203189,-0.00567717 0.0367677,-0.014189 0.0495394,-0.0256929 0.0133583,-0.0115118 0.0232323,-0.0260276 0.0297992,-0.0437165 0.00638976,-0.0175197 0.00967717,-0.038374 0.00967717,-0.0623976 0,-0.0240236 -0.0032874,-0.044878 -0.00967717,-0.0623937 -0.00656693,-0.0175197 -0.0164409,-0.0316969 -0.0297992,-0.0427126 -0.0127717,-0.0115118 -0.0292205,-0.0200236 -0.0495394,-0.0256929 -0.0201181,-0.00550394 -0.0439291,-0.00834646 -0.0712165,-0.00834646l-0.0685079 0 0 0.279291 0.0673504 0zm0.359929 0.063063l0 -0.478492 0.0836063 0 0 0.478492 -0.0836063 0zm0.398268 0.0100079c-0.066185,0 -0.115728,-0.0206811 -0.148827,-0.0622244 -0.0330866,-0.041374 -0.0497323,-0.103441 -0.0497323,-0.186031 0,-0.0425394 0.00407087,-0.0794134 0.0123937,-0.110614 0.00811811,-0.0311969 0.0207008,-0.0570551 0.0375354,-0.0775787 0.0162559,-0.0205236 0.0369646,-0.0360354 0.0619252,-0.0463819 0.0251654,-0.0105079 0.0547559,-0.0156772 0.0890118,-0.0156772 0.0330945,0 0.0621181,0.005 0.0869016,0.0151772 0.0249606,0.0100157 0.0454724,0.0253622 0.0617283,0.0458819 0.016252,0.0200236 0.0284449,0.0457165 0.0365709,0.0770827 0.00812598,0.0313661 0.012189,0.0680709 0.012189,0.110114 0,0.0420433 -0.00406299,0.078748 -0.0123858,0.110276 -0.00811811,0.0313701 -0.0207008,0.0573976 -0.0375315,0.0779213 -0.0162638,0.0205118 -0.0367677,0.0360354 -0.0617362,0.046374 -0.0249724,0.0105157 -0.0543858,0.0156811 -0.0880433,0.0156811zm0.00230709 -0.064063c0.019748,0 0.0365787,-0.00366929 0.0507126,-0.0110118 0.0139291,-0.00734252 0.0253425,-0.0180197 0.0340591,-0.0320276 0.00927559,-0.0145157 0.0160591,-0.0335394 0.0203189,-0.0570669 0.00425984,-0.0235157 0.00638976,-0.0515512 0.00638976,-0.0840866 0,-0.0335315 -0.00212992,-0.062063 -0.00620472,-0.0859213 -0.00424803,-0.023685 -0.0106378,-0.0427087 -0.0193465,-0.0572244 -0.00870472,-0.0145079 -0.0203268,-0.0253543 -0.0350276,-0.0323661 -0.0145157,-0.00717323 -0.032311,-0.0106772 -0.0532087,-0.0106772 -0.019748,0 -0.0367756,0.00350394 -0.0512953,0.0106772 -0.014311,0.00701181 -0.0259291,0.0178583 -0.0346339,0.0323661 -0.0092874,0.0145157 -0.0160591,0.0335394 -0.0203189,0.0570551 -0.00425984,0.0235276 -0.00638976,0.051563 -0.00638976,0.0840945 0,0.0330354 0.00232677,0.0615591 0.00677165,0.0854252 0.00465354,0.0240236 0.0112283,0.0432087 0.019937,0.0577244 0.00870472,0.0140079 0.0203228,0.024685 0.0350276,0.0320276 0.0145157,0.00734252 0.032311,0.0110118 0.0532087,0.0110118zm0.559657 -0.0150118l0.022063 0.0570551c-0.0156732,0.00750394 -0.032311,0.0130118 -0.0497323,0.016685 -0.0176102,0.0035 -0.036189,0.00533465 -0.0559291,0.00533465 -0.024378,0 -0.0458543,-0.0035 -0.0640512,-0.0105039 -0.018189,-0.00701575 -0.0329016,-0.0175197 -0.0439252,-0.0315394 -0.0116181,-0.0135079 -0.0203268,-0.0315276 -0.0261339,-0.0537165 -0.00579134,-0.022185 -0.00869685,-0.0483858 -0.00869685,-0.0784173l0 -0.253264 -0.0708346 0 0 -0.0610591 0.0708346 0 0 -0.152157 0.0835945 0 0 0.152157 0.153264 0 0 0.0610591 -0.153264 0 0 0.240256c0,0.0230157 0.00135433,0.0425394 0.00425984,0.0585551 0.00270866,0.0160197 0.00677165,0.0285315 0.0119921,0.0375394 0.00522441,0.00901181 0.0127717,0.015685 0.0224488,0.020185 0.00986614,0.00450787 0.0216732,0.00684252 0.0355984,0.00684252 0.0122008,0 0.0240079,-0.00133465 0.0356102,-0.00383858 0.0114252,-0.00250394 0.0224567,-0.00616535 0.0329016,-0.0111732zm0.279827 -0.419433c0.0336732,0 0.062315,0.00466929 0.086126,0.0141772 0.0236063,0.00951181 0.0421772,0.0238583 0.0555354,0.0428819 0.0133465,0.0190157 0.0234173,0.0422047 0.0303858,0.0697402 0.00677165,0.0275236 0.010248,0.0593937 0.010248,0.0954291 0,0.00550787 0,0.0126811 -0.00019685,0.021689 -0.00038189,0.00900787 -0.000952756,0.0198543 -0.00212992,0.0323661l-0.296071 0c0.00115748,0.0275276 0.00464173,0.0512205 0.0102559,0.0712362 0.00581102,0.0200236 0.0135433,0.036374 0.0234173,0.0488858 0.0104528,0.0125118 0.0232126,0.0220276 0.0387008,0.0283622 0.0154803,0.00650787 0.033874,0.00967717 0.0553465,0.00967717 0.0226378,0 0.0445118,-0.00316929 0.0654094,-0.00967717 0.0210945,-0.00633465 0.0414213,-0.0158504 0.0611496,-0.0283622l0.0267047 0.0600591c-0.0232205,0.0140197 -0.0487598,0.0245236 -0.0764291,0.0315394 -0.0278819,0.00700394 -0.0576811,0.0105039 -0.0896102,0.0105039 -0.0667559,0 -0.116693,-0.0208504 -0.149976,-0.0623937 -0.0330866,-0.0415433 -0.0497323,-0.103772 -0.0497323,-0.186858 0,-0.0830866 0.0168346,-0.145484 0.050311,-0.187028 0.0336772,-0.0415433 0.0837913,-0.0622283 0.150555,-0.0622283zm0.0812874 0.103102c-0.00754724,-0.0135079 -0.017815,-0.0235236 -0.0309646,-0.0302008 -0.0131654,-0.00650394 -0.0294173,-0.00983465 -0.0491575,-0.00983465 -0.0191575,0 -0.036,0.003 -0.0501142,0.00916929 -0.0143307,0.00600394 -0.0259331,0.0153543 -0.0346457,0.0278622 -0.0092874,0.0125118 -0.0166378,0.0285354 -0.0218583,0.0482205 -0.00542913,0.0198543 -0.00891339,0.043378 -0.0106496,0.0709055l0.215961 0c0.00057874,-0.0255315 -0.00057874,-0.0480472 -0.0036811,-0.0674055 -0.0028937,-0.0195236 -0.00792126,-0.0357047 -0.0148898,-0.0487165zm0.387803 0.395406c-0.0667598,0 -0.116689,-0.0208504 -0.149972,-0.0623937 -0.0330866,-0.0415433 -0.0497323,-0.103772 -0.0497323,-0.186858 0,-0.0425433 0.00407087,-0.0795866 0.0123858,-0.110953 0.00812598,-0.0315276 0.0207087,-0.0572205 0.0375433,-0.0772441 0.0168386,-0.0205197 0.038315,-0.0358661 0.0644331,-0.0458819 0.0261299,-0.0101772 0.0568976,-0.0151772 0.092311,-0.0151772 0.0267087,0 0.0518661,0.00316535 0.0756732,0.00966929 0.0236063,0.00634646 0.0456614,0.0158543 0.0659803,0.0283661l-0.0313504 0.0550591c-0.0156732,-0.00951575 -0.0323189,-0.016689 -0.0497323,-0.021689 -0.0176102,-0.00483858 -0.036189,-0.00734252 -0.0559252,-0.00734252 -0.0226378,0 -0.0419921,0.00350394 -0.0582441,0.0103465 -0.0160669,0.00700394 -0.0288386,0.0171811 -0.038122,0.0307008 -0.00987402,0.0135079 -0.0172362,0.0320236 -0.0218701,0.0555512 -0.00483858,0.0235236 -0.00716142,0.0520591 -0.00716142,0.0855906 0,0.0330354 0.00232283,0.0615669 0.00716142,0.0854213 0.00463386,0.0240276 0.0119961,0.0432126 0.0218701,0.0577283 0.0104528,0.0150157 0.0236063,0.026189 0.0392795,0.0337008 0.0158622,0.00750394 0.0344488,0.0113425 0.0559252,0.0113425 0.0208976,0 0.0412244,-0.003 0.0609606,-0.00883858 0.0197323,-0.00600394 0.0388976,-0.014685 0.0574685,-0.0261969l0.0267087 0.058063c-0.0220551,0.0135118 -0.0460551,0.023685 -0.072189,0.0307008 -0.0259252,0.00683465 -0.0537874,0.0103346 -0.0834016,0.0103346zm0.486496 -0.498508c0.0418031,0 0.0729567,0.0100079 0.0934685,0.0300315 0.0205236,0.0200157 0.0307717,0.0500472 0.0307717,0.0900906l0 0.368378 -0.0835945 0 0 -0.345358c0,-0.0145079 -0.00135433,-0.0268583 -0.00425984,-0.0368661 -0.00270866,-0.0101772 -0.00677165,-0.018189 -0.0119961,-0.0241929 -0.0116102,-0.0120118 -0.0290236,-0.0180197 -0.0522559,-0.0180197 -0.020315,0 -0.0406339,0.0045 -0.0611457,0.0136811 -0.0207087,0.00900787 -0.0416063,0.0228543 -0.0630906,0.041374l0 0.369382 -0.0835984 0 0 -0.700728 0.0835984 0 0 0.20822c0,0.0130197 -0.00019685,0.0246929 -0.000775591,0.0352087 -0.000385827,0.0105039 -0.000964567,0.0198543 -0.00154331,0.0278543l0.0023189 0.00100787c0.0255551,-0.0200236 0.0510945,-0.0350394 0.0764488,-0.0450472 0.0255394,-0.0100157 0.0506929,-0.0150157 0.0756535,-0.0150157z"/>
   <polygon id="_378880832" class="fil1" points="5.31193,3.72425 5.62062,3.54602 5.98856,3.65949 6.01243,4.0573 5.70374,4.23552 5.67987,3.83771 "/>
   <polygon id="_378880928" class="fil2" points="4.44046,2.4185 4.74915,2.24027 5.09744,2.36556 5.12131,2.76336 4.81263,2.94158 4.78875,2.54377 "/>
   <polygon id="_378881072" class="fil3" points="6.25587,3.2758 6.56457,3.09757 6.90892,3.22285 6.9328,3.62065 6.62411,3.79888 6.60023,3.40107 "/>
   <polygon id="_378881120" class="fil4" points="6.20735,2.405 6.51605,2.22677 6.8879,2.3442 6.91178,2.74199 6.60309,2.92021 6.57921,2.52242 "/>
   <polygon id="_378881192" class="fil5" points="4.40848,3.25744 4.71717,3.0792 5.07391,3.20858 5.09778,3.60638 4.78909,3.7846 4.76522,3.38679 "/>
   <polygon id="_378881216" class="fil6" points="5.31371,2.83877 5.6224,2.66055 5.99427,2.78974 6.01815,3.18756 5.70945,3.36578 5.68558,2.96797 "/>
   <polygon id="_378881312" class="fil7" points="5.34981,1.98867 5.65851,1.81044 5.99107,1.91999 6.01495,2.3178 5.70625,2.49602 5.68238,2.09821 "/>
   <ellipse id="_196048520" class="fil8" cx="5.59596" cy="4.74908" rx="0.0579581" ry="0.0505886"/>
  </g>
 </g>
</svg>
